<svg width="107" height="105" viewBox="0 0 107 105" fill="none" xmlns="http://www.w3.org/2000/svg">
<path d="M92.5806 9C89.8946 9 87.2689 9.79649 85.0356 11.2887C82.8023 12.781 81.0617 14.902 80.0338 17.3835C79.0059 19.8651 78.7369 22.5957 79.261 25.23C79.785 27.8644 81.0784 30.2842 82.9777 32.1835C84.877 34.0828 87.2968 35.3762 89.9312 35.9002C92.5655 36.4243 95.2961 36.1553 97.7777 35.1274C100.259 34.0995 102.38 32.3589 103.872 30.1256C105.365 27.8923 106.161 25.2666 106.161 22.5806C106.157 18.98 104.725 15.528 102.179 12.982C99.6332 10.436 96.1812 9.00395 92.5806 9ZM99.652 19.3389L91.2483 27.7426C90.9937 27.9972 90.6483 28.1402 90.2882 28.1402C89.9281 28.1402 89.5827 27.9972 89.328 27.7426L85.5092 23.9224C85.2618 23.6662 85.1249 23.3232 85.128 22.9671C85.1311 22.611 85.2739 22.2704 85.5257 22.0186C85.7775 21.7668 86.1181 21.624 86.4742 21.6209C86.8303 21.6178 87.1733 21.7547 87.4295 22.0021L90.2882 24.8621L97.7317 17.42C97.9888 17.1785 98.3298 17.0466 98.6825 17.0521C99.0351 17.0575 99.3718 17.2 99.6213 17.4493C99.8708 17.6986 100.014 18.0352 100.019 18.3879C100.025 18.7406 99.8933 19.0816 99.652 19.3389Z" fill="#90D797"/>
<path fill-rule="evenodd" clip-rule="evenodd" d="M3.84625 0.00144128C2.82631 0.00144128 1.84843 0.3702 1.12727 1.02644C0.406102 1.68267 1.3613e-06 2.57331 1.3613e-06 3.50143V87.4931C-0.000857127 88.422 0.404364 89.3134 1.12555 89.9705C1.84672 90.6275 2.82547 90.997 3.8463 90.997H15.3895V101.497C15.3887 102.423 15.7913 103.312 16.5091 103.969C17.2277 104.626 18.2021 104.996 19.2204 105H96.1502C97.171 105.001 98.1515 104.632 98.8736 103.975C99.5957 103.318 100.001 102.426 100 101.497V17.5032C100 16.5743 99.5939 15.6836 98.8719 15.0274C98.1498 14.3711 97.1711 14.0024 96.1502 14.0032H84.6114V3.50001C84.6114 2.57111 84.2053 1.68047 83.4833 1.02422C82.7613 0.36718 81.7817 -0.000778759 80.7608 1.23755e-06L3.84625 0.00144128ZM7.69253 7.00141H76.9144V14.0046H42.3068C41.2851 14.0015 40.3038 14.3679 39.5801 15.0233L16.5113 36.0312C15.7944 36.6867 15.3917 37.5742 15.3917 38.4992V83.995H7.69477L7.69253 7.00141ZM46.1509 21.0046H92.3017V97.9982H23.0644V41.9985H42.3035C43.3234 41.9985 44.3022 41.6289 45.0233 40.9727C45.7445 40.3165 46.1498 39.4266 46.1498 38.4985L46.1509 21.0046ZM38.4548 25.9537V34.9943H28.5198L38.4548 25.9537Z" fill="#BBBBBB" fill-opacity="0.1"/>
</svg>
