<svg width="28" height="28" viewBox="0 0 24 24" fill="gray" xmlns="http://www.w3.org/2000/svg">
<path d="M13.7203 20.7268L14.4886 21.4896L11.9782 24L9.47331 21.4896L10.2361 20.7268L11.9782 22.4689L13.7203 20.7268ZM12.0215 1.53109L13.7636 3.27319L14.5264 2.51038L12.0215 0L9.51115 2.51038L10.2794 3.27319L12.0215 1.53109ZM3.27315 10.236L2.51035 9.4732L0 11.9782L2.51035 14.4885L3.27315 13.7203L1.53107 11.9782L3.27315 10.236ZM21.4897 9.51104L20.7269 10.2793L22.4689 12.0214L20.7269 13.7635L21.4897 14.5263L24 12.0213L21.4897 9.51104ZM21.3543 12.5408H18.9793V12.541C18.8114 14.176 18.0748 15.7004 16.8985 16.8482C15.7219 17.9961 14.1798 18.6946 12.5412 18.8223V21.3597H11.4592V18.8223C9.82032 18.6946 8.2784 17.9961 7.10185 16.8482C5.9253 15.7004 5.18894 14.176 5.02083 12.541H2.64038V11.4588H5.00469C5.09527 9.76067 5.79977 8.15353 6.98717 6.9362C8.17457 5.71887 9.76379 4.97471 11.4592 4.84194V2.64008H12.5412V4.84212V4.84194C14.2365 4.97472 15.8257 5.71888 17.0132 6.9362C18.2006 8.15353 18.9051 9.76068 18.9956 11.4588H21.3545L21.3543 12.5408ZM12.0003 11.4588C10.929 11.4727 9.91423 11.9423 9.2099 12.7496C8.50577 13.5572 8.17865 14.6264 8.31049 15.6897H15.6899C15.822 14.6263 15.4948 13.5572 14.7905 12.7496C14.0864 11.9423 13.0716 11.4727 12.0001 11.4588H12.0003ZM12.0003 10.9555V10.9557C12.7205 10.9474 13.3827 10.5583 13.7402 9.93309C14.098 9.30797 14.098 8.54006 13.7402 7.91488C13.3827 7.28976 12.7206 6.90082 12.0003 6.89247C11.2801 6.9008 10.6181 7.28973 10.2604 7.91488C9.9026 8.54001 9.9026 9.30792 10.2604 9.93309C10.6181 10.5582 11.28 10.9473 12.0003 10.9557V10.9555ZM12.0003 9.87351C12.3367 9.86916 12.6455 9.68729 12.8124 9.39529C12.9792 9.10328 12.9792 8.7448 12.8124 8.45297C12.6456 8.16095 12.3367 7.97888 12.0003 7.97457C11.6641 7.97892 11.3552 8.16097 11.1884 8.45297C11.0216 8.7448 11.0216 9.10328 11.1884 9.39529C11.3552 9.68731 11.6641 9.86919 12.0003 9.87351ZM9.44669 14.6074H14.5538V14.6076C14.3794 13.8279 13.8582 13.1709 13.1389 12.8232C12.4195 12.4756 11.5808 12.4756 10.8617 12.8232C10.1423 13.1709 9.62119 13.8279 9.44655 14.6076L9.44669 14.6074Z" fill="#CBD4DB"/>
</svg>
