<svg width="28" height="28" viewBox="0 0 24 20" fill="none" xmlns="http://www.w3.org/2000/svg">
<path d="M19.7381 4.29171C19.9108 4.29171 20.0588 4.21773 20.1574 4.11897L21.7853 2.49104C21.9087 2.36768 21.9581 2.21972 21.9581 2.07176C21.9581 1.89902 21.8841 1.75106 21.7853 1.65247C21.662 1.52911 21.514 1.47974 21.366 1.47974C21.1933 1.47974 21.0453 1.55372 20.9468 1.65247L19.3188 3.28041C19.0721 3.52713 19.0721 3.89703 19.3188 4.14377C19.4174 4.24235 19.5654 4.29173 19.7381 4.29173V4.29171Z" fill="#CBD4DB"/>
<path d="M17.7649 3.47776C18.1102 3.47776 18.3569 3.20644 18.3569 2.88576V0.592003C18.3569 0.271306 18.0855 0 17.7649 0C17.4442 0 17.1729 0.271323 17.1729 0.592003V2.88576C17.173 3.20645 17.4443 3.47776 17.7649 3.47776Z" fill="#CBD4DB"/>
<path d="M15.3968 4.11893C15.5201 4.24229 15.6681 4.29167 15.816 4.29167C15.9888 4.29167 16.1367 4.21769 16.2353 4.11893C16.482 3.87221 16.482 3.50231 16.2353 3.25557L14.6074 1.62764C14.3854 1.4057 13.9908 1.4057 13.744 1.62764C13.6207 1.751 13.5713 1.89896 13.5713 2.04692C13.5713 2.21966 13.6453 2.36762 13.744 2.46621L15.3968 4.11893Z" fill="#CBD4DB"/>
<path d="M20.1578 7.17747C19.9111 6.93075 19.5412 6.93075 19.2944 7.17747C19.0477 7.42419 19.0477 7.7941 19.2944 8.04083L20.9223 9.66877C21.0457 9.79212 21.1937 9.8415 21.3416 9.8415C21.5144 9.8415 21.6623 9.76752 21.7609 9.66877C22.0076 9.42204 22.0076 9.05214 21.7609 8.8054L20.1578 7.17747Z" fill="#CBD4DB"/>
<path d="M22.8457 5.0564H20.552C20.2313 5.0564 19.96 5.32772 19.96 5.6484C19.96 5.96908 20.2313 6.2404 20.552 6.2404H22.8457C23.191 6.2404 23.4377 5.96908 23.4377 5.6484C23.4377 5.32772 23.1664 5.0564 22.8457 5.0564Z" fill="#CBD4DB"/>
<path d="M17.2223 1.24054C15.7918 2.64653 14.8792 3.38635 14.3612 3.75641L13.8679 3.26316C13.3992 2.79448 12.6593 2.79448 12.1908 3.26316L11.4754 3.97835C8.49086 2.52316 4.81587 3.04104 2.34937 5.50753C-0.783124 8.61528 -0.783124 13.6716 2.34937 16.8041C5.45711 19.9118 10.5135 19.9118 13.6459 16.8041C16.1124 14.3376 16.6305 10.6378 15.1751 7.67805L15.8903 6.96286C16.359 6.49418 16.359 5.75423 15.8903 5.28573L15.4956 4.89105C16.1122 4.42237 17.0496 3.6578 18.332 2.35056C18.6279 2.05463 18.6279 1.53661 18.332 1.24068C18.0117 0.919803 17.5184 0.919803 17.2223 1.2405L17.2223 1.24054ZM7.92365 6.1242C8.54028 6.07482 9.0829 6.51888 9.13228 7.13551V7.30825L8.7622 11.8466C8.7376 12.2659 8.36752 12.5618 7.94826 12.5372C7.57836 12.5126 7.30701 12.2165 7.25764 11.8466L6.88774 7.30825C6.83836 6.71625 7.30702 6.17357 7.92367 6.1242L7.92365 6.1242ZM8.02224 16.2368C7.33162 16.2368 6.76437 15.6696 6.76437 14.979C6.76437 14.2884 7.33162 13.7211 8.02224 13.7211C8.71286 13.7211 9.28011 14.2884 9.28011 14.979C9.28011 15.6694 8.71286 16.2368 8.02224 16.2368Z" fill="#CBD4DB"/>
</svg>
