<svg width="28" height="28" viewBox="0 0 24 23" fill="none" xmlns="http://www.w3.org/2000/svg">
<path d="M19.7381 4.29171C19.9108 4.29171 20.0588 4.21773 20.1574 4.11897L21.7853 2.49104C21.9087 2.36768 21.9581 2.21972 21.9581 2.07176C21.9581 1.89902 21.8841 1.75106 21.7853 1.65247C21.662 1.52911 21.514 1.47974 21.366 1.47974C21.1933 1.47974 21.0453 1.55372 20.9468 1.65247L19.3188 3.28041C19.0721 3.52713 19.0721 3.89703 19.3188 4.14377C19.4174 4.24235 19.5654 4.29173 19.7381 4.29173V4.29171Z" fill="#90DDB3"/>
<path d="M17.7649 3.47776C18.1102 3.47776 18.3569 3.20644 18.3569 2.88576V0.592003C18.3569 0.271306 18.0855 0 17.7649 0C17.4442 0 17.1729 0.271323 17.1729 0.592003V2.88576C17.173 3.20645 17.4443 3.47776 17.7649 3.47776Z" fill="#90DDB3"/>
<path d="M15.3972 4.11893C15.5206 4.24229 15.6686 4.29167 15.8165 4.29167C15.9893 4.29167 16.1372 4.21769 16.2358 4.11893C16.4825 3.87221 16.4825 3.50231 16.2358 3.25557L14.6079 1.62764C14.3859 1.4057 13.9913 1.4057 13.7445 1.62764C13.6212 1.751 13.5718 1.89896 13.5718 2.04692C13.5718 2.21966 13.6458 2.36762 13.7445 2.46621L15.3972 4.11893Z" fill="#90DDB3"/>
<path d="M20.1573 7.17747C19.9106 6.93075 19.5407 6.93075 19.2939 7.17747C19.0472 7.42419 19.0472 7.7941 19.2939 8.04083L20.9219 9.66877C21.0452 9.79212 21.1932 9.8415 21.3411 9.8415C21.5139 9.8415 21.6618 9.76752 21.7604 9.66877C22.0071 9.42204 22.0071 9.05214 21.7604 8.8054L20.1573 7.17747Z" fill="#90DDB3"/>
<path d="M22.8457 5.0564H20.552C20.2313 5.0564 19.96 5.32772 19.96 5.6484C19.96 5.96908 20.2313 6.2404 20.552 6.2404H22.8457C23.191 6.2404 23.4377 5.96908 23.4377 5.6484C23.4377 5.32772 23.1664 5.0564 22.8457 5.0564Z" fill="#90DDB3"/>
<path d="M17.2223 4.24054C15.7918 5.64653 14.8792 6.38635 14.3612 6.75641L13.8679 6.26316C13.3992 5.79448 12.6593 5.79448 12.1908 6.26316L11.4754 6.97835C8.49086 5.52316 4.81587 6.04104 2.34937 8.50753C-0.783124 11.6153 -0.783124 16.6716 2.34937 19.8041C5.45711 22.9118 10.5135 22.9118 13.6459 19.8041C16.1124 17.3376 16.6305 13.6378 15.1751 10.6781L15.8903 9.96286C16.359 9.49418 16.359 8.75423 15.8903 8.28573L15.4956 7.89105C16.1122 7.42237 17.0496 6.6578 18.332 5.35056C18.6279 5.05463 18.6279 4.53661 18.332 4.24068C18.0117 3.9198 17.5184 3.9198 17.2223 4.2405L17.2223 4.24054ZM7.92365 9.1242C8.54028 9.07482 9.0829 9.51888 9.13228 10.1355V10.3082L8.7622 14.8466C8.7376 15.2659 8.36752 15.5618 7.94826 15.5372C7.57836 15.5126 7.30701 15.2165 7.25764 14.8466L6.88774 10.3082C6.83836 9.71625 7.30702 9.17357 7.92367 9.1242L7.92365 9.1242ZM8.02224 19.2368C7.33162 19.2368 6.76437 18.6696 6.76437 17.979C6.76437 17.2884 7.33162 16.7211 8.02224 16.7211C8.71286 16.7211 9.28011 17.2884 9.28011 17.979C9.28011 18.6694 8.71286 19.2368 8.02224 19.2368Z" fill="#90DDB3"/>
</svg>
