<svg width="14" height="13" viewBox="0 0 14 13" fill="none" xmlns="http://www.w3.org/2000/svg">
<path d="M9.09998 2.89116H2.3869L3.99693 1.23764C4.17459 1.05451 4.24373 0.78748 4.17881 0.537382C4.11377 0.287162 3.92428 0.0917099 3.68183 0.0247446C3.43925 -0.0423444 3.18038 0.0292171 3.00284 0.212349L0.202889 3.10052C0.13914 3.16918 0.0892168 3.25017 0.0559379 3.33877C-0.0141389 3.51465 -0.0141389 3.71182 0.0559379 3.88755C0.0892198 3.97616 0.13914 4.05715 0.202889 4.12581L3.00284 7.01398C3.13432 7.15069 3.31328 7.22769 3.49982 7.22769C3.6865 7.22769 3.86546 7.15081 3.9968 7.0141C4.12934 6.87847 4.20387 6.69388 4.20387 6.50146C4.20387 6.3089 4.12933 6.1243 3.9968 5.98882L2.38688 4.3353H9.09996C10.3504 4.3353 11.5058 5.02334 12.1312 6.14039C12.7565 7.25745 12.7564 8.63364 12.1312 9.75076C11.506 10.8677 10.3505 11.5559 9.09996 11.5559H0.699988C0.449912 11.5559 0.218819 11.6935 0.0937797 11.9169C-0.0312599 12.1403 -0.0312599 12.4155 0.0937797 12.6389C0.218819 12.8623 0.449909 13 0.699988 13H9.09996C10.8505 13 12.4681 12.0366 13.3435 10.4728C14.2188 8.90896 14.2188 6.98216 13.3435 5.41851C12.4682 3.85469 10.8505 2.89116 9.09998 2.89116Z" fill="#6966C6"/>
</svg>
