<svg width="20" height="20" viewBox="0 0 20 21" fill="none" xmlns="http://www.w3.org/2000/svg">
<path fill-rule="evenodd" clip-rule="evenodd" d="M0.76925 0.000287318C0.565262 0.000287318 0.369686 0.073799 0.225453 0.204619C0.0812203 0.33544 2.72259e-07 0.512987 2.72259e-07 0.698006V17.4417C-0.000171425 17.6268 0.0808728 17.8045 0.22511 17.9355C0.369343 18.0665 0.565095 18.1402 0.769259 18.1402H3.0779V20.2333C3.07773 20.4179 3.15826 20.5951 3.30181 20.7261C3.44553 20.8571 3.64042 20.9309 3.84407 20.9317H19.23C19.4342 20.9318 19.6303 20.8583 19.7747 20.7273C19.9191 20.5963 20.0002 20.4185 20 20.2333V3.48924C20 3.30407 19.9188 3.12652 19.7744 2.99569C19.63 2.86487 19.4342 2.79136 19.23 2.79152H16.9223V0.697723C16.9223 0.512549 16.8411 0.335001 16.6967 0.204177C16.5523 0.0731969 16.3563 -0.000155245 16.1522 2.46704e-07L0.76925 0.000287318ZM1.53851 1.39573H15.3829V2.7918H8.46136C8.25703 2.79118 8.06076 2.86422 7.91602 2.99489L3.30225 7.1828C3.15888 7.31346 3.07834 7.49038 3.07834 7.67479V16.7443H1.53895L1.53851 1.39573ZM9.23017 4.18724H18.4603V19.5359H4.61289V8.37235H8.4607C8.66469 8.37235 8.86044 8.29869 9.00467 8.16787C9.1489 8.03705 9.22995 7.85966 9.22995 7.67464L9.23017 4.18724ZM7.69096 5.17385V6.97608H5.70395L7.69096 5.17385Z" fill="white"/>
</svg>
