<svg width="15" height="17" viewBox="0 0 15 17" fill="none" xmlns="http://www.w3.org/2000/svg">
<path d="M7.97963 15.7918H2.31296C1.67698 15.7918 1.15661 15.2731 1.15661 14.6392V2.30543C1.15661 1.67152 1.67698 1.15284 2.31296 1.15284H7.97963C8.29763 1.15284 8.55793 0.893403 8.55793 0.576421C8.55793 0.259455 8.29764 0 7.97963 0H2.31296C1.04074 0 0 1.03736 0 2.30543V14.6392C0 15.9073 1.04074 16.9447 2.31296 16.9447H7.97963C8.29763 16.9447 8.55793 16.6852 8.55793 16.3682C8.55793 16.0513 8.29764 15.792 7.97963 15.792V15.7918Z" fill="#6F7782"/>
<path d="M14.7158 8.38737C14.7158 8.35861 14.7158 8.35861 14.687 8.32965C14.687 8.30089 14.687 8.27193 14.6581 8.27193C14.6293 8.27193 14.6581 8.24317 14.6293 8.21421C14.6293 8.18545 14.6293 8.18545 14.6004 8.18545V8.12773L10.8995 4.12244C10.6682 3.89195 10.2923 3.89195 10.0611 4.09368C9.82986 4.32416 9.82986 4.6701 10.0322 4.90057L12.8365 7.89745H4.82781C4.50981 7.89745 4.24951 8.15689 4.24951 8.47387C4.24951 8.79085 4.5098 9.0503 4.82781 9.0503H12.8365L10.032 12.0474C9.82966 12.2779 9.82966 12.6238 10.0609 12.8543C10.1765 12.9695 10.3212 13.0272 10.4657 13.0272C10.6392 13.0272 10.7837 12.9408 10.8993 12.8255L14.571 8.87755V8.81984C14.5998 8.81984 14.5998 8.81984 14.5998 8.79108C14.6577 8.76231 14.6577 8.76231 14.6577 8.73336C14.6866 8.73336 14.6866 8.7046 14.6866 8.67564C14.7154 8.64688 14.7154 8.64688 14.7154 8.61792C14.7154 8.58916 14.7443 8.53144 14.7443 8.50268C14.7447 8.47392 14.7158 8.4162 14.7158 8.38744L14.7158 8.38737Z" fill="#6F7782"/>
</svg>
