<svg width="14" height="14" viewBox="0 0 18 18" fill="#4f4f4f" xmlns="http://www.w3.org/2000/svg">
<path d="M16.4 15.6C16.4 16.0444 16.0444 16.4 15.6 16.4H2.4C1.9556 16.4 1.6 16.0444 1.6 15.6V2.4C1.6 1.9556 1.95559 1.6 2.4 1.6H7.6V0H2.4C1.06659 0 0 1.06663 0 2.4V15.6C0 16.9334 1.06663 18 2.4 18H15.6C16.9334 18 18 16.9334 18 15.6V10.4H16.4V15.6Z" fill="#00000094"/>
<path d="M10.4187 3.95631e-05V1.5961H15.2734L9 7.8695L10.1305 9L16.4039 2.7266V7.58128H18V0L10.4187 3.95631e-05Z" fill="#00000094"/>
</svg>
