<svg width="20" height="20" viewBox="0 0 74 74" fill="none" xmlns="http://www.w3.org/2000/svg">
<path d="M62.604 45.9903L63.8422 47.2611C64.5264 47.9632 64.5264 49.1011 63.8422 49.8026L59.1983 54.5684C59.0273 54.744 59.0273 55.0286 59.1983 55.2041L63.8422 59.9699C64.5264 60.672 64.5264 61.8099 63.8422 62.5114L62.604 63.7822C61.9198 64.4843 60.811 64.4843 60.1274 63.7822L55.4835 59.0164C55.3124 58.8409 55.0351 58.8409 54.8641 59.0164L50.2202 63.7822C49.536 64.4843 48.4272 64.4843 47.7436 63.7822L46.5053 62.5114C45.8211 61.8093 45.8211 60.6714 46.5053 59.9699L51.1492 55.2041C51.3203 55.0286 51.3203 54.7439 51.1492 54.5684L46.5053 49.8026C45.8211 49.1005 45.8211 47.9626 46.5053 47.2611L47.7436 45.9903C48.4278 45.2882 49.5366 45.2882 50.2202 45.9903L54.8641 50.7561C55.0351 50.9317 55.3125 50.9317 55.4835 50.7561L60.1274 45.9903C60.8116 45.2876 61.9198 45.2876 62.604 45.9903Z" fill="white"/>
<path d="M73.7541 15.3252L65.4387 0.883008C64.7606 -0.294336 63.1002 -0.294336 62.4227 0.883008L54.1073 15.3252C53.417 16.5233 54.2582 18.0372 55.615 18.0372H60.8649C61.1068 18.0372 61.3029 18.2385 61.3029 18.4867V21.632C61.3029 27.5877 56.5972 32.4168 50.7938 32.4168H24.5208C15.8151 32.4168 8.75702 39.6596 8.75702 48.5943V50.3748C8.75702 50.5773 8.62323 50.7484 8.43325 50.8011C3.20836 52.238 -0.538206 57.3825 0.0634151 63.325C0.60833 68.7077 4.84182 73.0873 10.0819 73.6848C16.9526 74.4672 22.7694 68.9691 22.7694 62.0756C22.7694 56.6722 19.1908 52.137 14.3367 50.8017C14.1455 50.7484 14.0117 50.576 14.0117 50.3742V48.5943C14.0117 42.6387 18.7174 37.8095 24.5208 37.8095H50.7938C59.4995 37.8095 66.5576 30.5667 66.5576 21.632V18.4861C66.5576 18.2378 66.7537 18.0366 66.9956 18.0366H72.2455C73.6023 18.0372 74.4435 16.5232 73.7538 15.3251L73.7541 15.3252ZM17.5142 62.0762C17.5142 65.5455 14.7639 68.3673 11.3839 68.3673C8.00333 68.3673 5.25373 65.5449 5.25373 62.0762C5.25373 58.6069 8.00395 55.7851 11.3839 55.7851C14.7646 55.7851 17.5142 58.6069 17.5142 62.0762Z" fill="white"/>
<path d="M27.5732 6.44505L28.8115 7.71581C29.4957 8.41796 29.4957 9.55584 28.8115 10.2573L24.1676 15.0231C23.9965 15.1987 23.9965 15.4833 24.1676 15.6588L28.8115 20.4246C29.4957 21.1267 29.4957 22.2646 28.8115 22.9661L27.5732 24.2369C26.889 24.939 25.7802 24.939 25.0966 24.2369L20.4527 19.4711C20.2817 19.2956 20.0043 19.2956 19.8333 19.4711L15.1894 24.2369C14.5052 24.939 13.3964 24.939 12.7128 24.2369L11.4746 22.9661C10.7904 22.264 10.7904 21.1261 11.4746 20.4246L16.1185 15.6588C16.2895 15.4833 16.2895 15.1986 16.1185 15.0231L11.4746 10.2573C10.7904 9.5552 10.7904 8.41732 11.4746 7.71581L12.7128 6.44505C13.397 5.7429 14.5058 5.7429 15.1894 6.44505L19.8333 11.2108C20.0044 11.3864 20.2817 11.3864 20.4527 11.2108L25.0966 6.44505C25.7808 5.74228 26.889 5.74228 27.5732 6.44505V6.44505Z" fill="white"/>
</svg>
