<svg width="35" height="22" viewBox="0 0 35 22" fill="none" xmlns="http://www.w3.org/2000/svg">
<path d="M16.9979 6.60854C16.7422 6.38099 16.3289 6.38099 16.0732 6.60854L10.7263 11.3676C10.4707 11.5952 10.4707 11.9631 10.7263 12.1907L11.0364 12.4667C11.292 12.6942 11.7054 12.6942 11.9611 12.4667L15.6707 9.1648V16.4608C15.6707 16.7804 15.9644 17.0418 16.3234 17.0418H16.7586C17.1176 17.0418 17.4113 16.7804 17.4113 16.4608V9.1648L21.1209 12.4667C21.3765 12.6942 21.7899 12.6942 22.0456 12.4667L22.3556 12.1907C22.6113 11.9631 22.6113 11.5952 22.3556 11.3676L16.9979 6.60854V6.60854ZM31.0966 10.0121C31.2489 9.53275 31.3305 9.03409 31.3305 8.5209C31.3305 5.52406 28.6054 3.09851 25.2385 3.09851C24.3301 3.09851 23.4489 3.2728 22.6276 3.62138C20.9088 1.44274 18.0422 0 14.795 0C9.66024 0 5.45564 3.60686 5.23263 8.14326C2.13222 9.11155 0 11.7308 0 14.7179C0 18.5717 3.50293 21.6896 7.83263 21.6896H27.8493C31.6949 21.6896 34.8117 18.9203 34.8117 15.4925C34.8117 13.2171 33.4083 11.0965 31.0966 10.0121ZM27.8493 20.1403H7.83263C4.46569 20.1403 1.74058 17.7147 1.74058 14.7179C1.74058 11.968 4.03598 9.69736 7.01673 9.34394C6.97865 9.07282 6.96234 8.79686 6.96234 8.5209C6.96234 4.67197 10.4707 1.54925 14.795 1.54925C18.0749 1.54925 20.8816 3.34058 22.051 5.88716C22.8452 5.12706 23.9765 4.64776 25.2385 4.64776C27.6427 4.64776 29.5899 6.38099 29.5899 8.5209C29.5899 9.41656 29.2473 10.2444 28.6707 10.9029C31.1673 11.2515 33.0711 13.1735 33.0711 15.4925C33.0711 18.0585 30.7322 20.1403 27.8493 20.1403Z" fill="#DADADA"/>
</svg>
